<svg width="17" height="16" viewBox="0 0 17 16" fill="none" xmlns="http://www.w3.org/2000/svg">
    <path d="M5.29782 1.899L6.16979 2.95127C6.34118 3.15806 6.60881 3.24181 6.86113 3.16758L9.01313 2.53444C9.34267 2.43748 9.36119 1.94485 9.03957 1.8311L6.79394 1.03689C6.66559 0.991505 6.52692 0.987905 6.3954 1.0266L5.47067 1.29866C5.22308 1.37151 5.12962 1.69599 5.29782 1.899Z" fill="#161616"/>
    <path d="M0.472992 3.29849C0.644603 3.24744 0.826976 3.26887 0.982035 3.3583L2.89874 4.46377C3.36225 4.73108 3.90718 4.79599 4.42053 4.64496L13.1516 2.07618C14.2455 1.75437 15.4558 1.91013 16.0453 2.76039C16.2697 3.08412 16.0364 3.50545 15.6685 3.61369L11.8291 4.74327C11.6104 4.80763 11.3045 5.02007 11.2268 5.24798L9.18418 9.23925C9.11298 9.4822 8.9302 9.67084 8.70053 9.73841L7.85743 9.98646C7.63272 10.0526 7.41596 9.86793 7.42732 9.62007L7.6642 6.46158C7.67557 6.21371 7.4588 6.02907 7.23409 6.09518L4.13929 7.00571C3.36891 7.23032 2.45623 6.82219 1.93904 6.19824L0.0851527 3.96281C-0.0828798 3.76022 0.00992221 3.43612 0.257023 3.36268L0.472992 3.29849Z" fill="#161616"/>
    <path d="M2.01667 13C1.45978 13 1.00833 12.5523 1.00833 12C1.00833 11.4477 1.45978 11 2.01667 11H11.6823L11.387 10.7071C10.9932 10.3166 10.9932 9.68342 11.387 9.29289C11.7808 8.90237 12.4192 8.90237 12.813 9.29289L14.8297 11.2929C15.2234 11.6834 15.2234 12.3166 14.8297 12.7071L12.813 14.7071C12.4192 15.0976 11.7808 15.0976 11.387 14.7071C10.9932 14.3166 10.9932 13.6834 11.387 13.2929L11.6823 13H2.01667Z" fill="#161616"/>
</svg>
